#N canvas 295 23 1180 833 10;
#X floatatom 140 200 5 0 0 0 - - -;
#X floatatom 236 200 5 0 0 0 - - -;
#X floatatom 333 200 5 0 0 0 - - -;
#X floatatom 107 371 5 0 0 0 - - -;
#X floatatom 206 372 5 0 0 0 - - -;
#X floatatom 306 371 5 0 0 0 - - -;
#X obj 140 -2 vsl 15 128 0 255 0 0 empty empty empty 0 -9 0 10 -262144
-1 -1 5000 1;
#X obj 236 -2 vsl 15 128 0 255 0 0 empty empty empty 0 -9 0 10 -262144
-1 -1 6200 1;
#X obj 333 -2 vsl 15 128 0 255 0 0 empty empty empty 0 -9 0 10 -262144
-1 -1 8300 1;
#X obj 227 249 bondo 3;
#X obj 107 307 expr 255 - $i1;
#X obj 206 307 expr 255 - $i1;
#X obj 306 307 expr 255 - $i1;
#X floatatom 480 200 5 0 0 0 - - -;
#X floatatom 576 200 5 0 0 0 - - -;
#X floatatom 673 200 5 0 0 0 - - -;
#X floatatom 447 371 5 0 0 0 - - -;
#X floatatom 546 372 5 0 0 0 - - -;
#X floatatom 646 371 5 0 0 0 - - -;
#X obj 480 -2 vsl 15 128 0 255 0 0 empty empty empty 0 -9 0 10 -262144
-1 -1 2100 1;
#X obj 576 -2 vsl 15 128 0 255 0 0 empty empty empty 0 -9 0 10 -262144
-1 -1 0 1;
#X obj 673 -2 vsl 15 128 0 255 0 0 empty empty empty 0 -9 0 10 -262144
-1 -1 0 1;
#X obj 567 249 bondo 3;
#X obj 447 307 expr 255 - $i1;
#X obj 546 307 expr 255 - $i1;
#X obj 646 307 expr 255 - $i1;
#X floatatom 820 200 5 0 0 0 - - -;
#X floatatom 916 200 5 0 0 0 - - -;
#X floatatom 1013 200 5 0 0 0 - - -;
#X floatatom 787 371 5 0 0 0 - - -;
#X floatatom 886 372 5 0 0 0 - - -;
#X floatatom 986 371 5 0 0 0 - - -;
#X obj 820 -2 vsl 15 128 0 255 0 0 empty empty empty 0 -9 0 10 -262144
-1 -1 12700 1;
#X obj 916 -2 vsl 15 128 0 255 0 0 empty empty empty 0 -9 0 10 -262144
-1 -1 0 1;
#X obj 1013 -2 vsl 15 128 0 255 0 0 empty empty empty 0 -9 0 10 -262144
-1 -1 0 1;
#X obj 907 249 bondo 3;
#X obj 787 307 expr 255 - $i1;
#X obj 886 307 expr 255 - $i1;
#X obj 986 307 expr 255 - $i1;
#X obj 306 428 print B1;
#X obj 206 428 print G1;
#X obj 107 428 print R1;
#X obj 447 428 print R2;
#X obj 546 428 print G2;
#X obj 646 428 print B2;
#X obj 786 428 print R3;
#X obj 886 428 print G3;
#X obj 986 428 print B3;
#X connect 0 0 9 0;
#X connect 1 0 9 1;
#X connect 2 0 9 2;
#X connect 3 0 41 0;
#X connect 4 0 40 0;
#X connect 5 0 39 0;
#X connect 6 0 0 0;
#X connect 7 0 1 0;
#X connect 8 0 2 0;
#X connect 9 0 10 0;
#X connect 9 1 11 0;
#X connect 9 2 12 0;
#X connect 10 0 3 0;
#X connect 11 0 4 0;
#X connect 12 0 5 0;
#X connect 13 0 22 0;
#X connect 14 0 22 1;
#X connect 15 0 22 2;
#X connect 16 0 42 0;
#X connect 17 0 43 0;
#X connect 18 0 44 0;
#X connect 19 0 13 0;
#X connect 20 0 14 0;
#X connect 21 0 15 0;
#X connect 22 0 23 0;
#X connect 22 1 24 0;
#X connect 22 2 25 0;
#X connect 23 0 16 0;
#X connect 24 0 17 0;
#X connect 25 0 18 0;
#X connect 26 0 35 0;
#X connect 27 0 35 1;
#X connect 28 0 35 2;
#X connect 29 0 45 0;
#X connect 30 0 46 0;
#X connect 31 0 47 0;
#X connect 32 0 26 0;
#X connect 33 0 27 0;
#X connect 34 0 28 0;
#X connect 35 0 36 0;
#X connect 35 1 37 0;
#X connect 35 2 38 0;
#X connect 36 0 29 0;
#X connect 37 0 30 0;
#X connect 38 0 31 0;
