#N canvas 508 23 405 505 10;
#X obj 2 3 cnv 15 400 500 empty empty empty 20 12 0 14 -232576 -66577
0;
#X floatatom 23 104 5 0 0 0 - - -;
#X obj 23 141 osc~;
#X obj 23 289 *~;
#X obj 23 327 dac~;
#X obj 26 21 hsl 128 15 0 500 0 0 empty empty empty -2 -8 0 10 -204800
-1 -1 1500 1;
#X floatatom 73 104 5 0 0 0 - - -;
#X obj 73 141 osc~;
#X obj 76 48 hsl 128 15 0 500 0 0 empty empty empty -2 -8 0 10 -203904
-1 -1 6000 1;
#X obj 112 141 phasor~;
#X floatatom 179 141 5 0 0 0 - - -;
#X obj 179 178 osc~;
#X obj 179 216 *~ 0.5;
#X obj 179 254 +~ 0.5;
#X obj 182 103 hsl 128 15 0 500 0 0 empty empty empty -2 -8 0 10 -204786
-1 -1 8000 1;
#X floatatom 112 104 5 0 0 0 - - -;
#X obj 115 75 hsl 128 15 0 500 0 0 empty empty empty -2 -8 0 10 -261682
-1 -1 0 1;
#X connect 1 0 2 0;
#X connect 2 0 3 0;
#X connect 3 0 4 0;
#X connect 3 0 4 1;
#X connect 5 0 1 0;
#X connect 6 0 7 0;
#X connect 7 0 3 1;
#X connect 8 0 6 0;
#X connect 9 0 3 1;
#X connect 10 0 11 0;
#X connect 11 0 12 0;
#X connect 12 0 13 0;
#X connect 13 0 3 1;
#X connect 14 0 10 0;
#X connect 15 0 9 0;
#X connect 16 0 15 0;
