#N canvas -11 531 858 348 10;
#X obj 77 194 bng 15 250 50 0 empty empty empty 17 7 0 10 -262144 -1
-1;
#X obj 77 270 print;
#X msg 77 230 hello world!;
#X floatatom 198 268 5 0 0 0 - - -;
#X obj 201 305 hsl 128 15 0 127 0 0 empty empty empty -2 -8 0 10 -262144
-1 -1 12100 1;
#X text 299 230 0 for countup \, 1 for countdown;
#X msg 219 203 2;
#X obj 198 230 counter 1 0 127;
#X obj 523 230 random 128;
#X obj 526 308 hsl 128 15 0 127 0 0 empty empty empty -2 -8 0 10 -262144
-1 -1 9200 1;
#X obj 678 230 drunk 128 2;
#X obj 681 308 hsl 128 15 0 127 0 0 empty empty empty -2 -8 0 10 -262144
-1 -1 6500 1;
#X obj 77 156 metro 1000;
#X obj 77 81 bng 15 250 50 0 empty empty empty 17 7 0 10 -262144 -1
-1;
#X obj 103 81 tgl 15 0 empty empty empty 17 7 0 10 -262144 -1 -1 0
1;
#X msg 129 81 0;
#X msg 34 81 stop;
#X floatatom 134 121 5 0 0 0 - - -;
#X connect 0 0 2 0;
#X connect 0 0 7 0;
#X connect 2 0 1 0;
#X connect 3 0 4 0;
#X connect 6 0 7 1;
#X connect 7 0 3 0;
#X connect 8 0 9 0;
#X connect 10 0 11 0;
#X connect 12 0 0 0;
#X connect 12 0 8 0;
#X connect 12 0 10 0;
#X connect 13 0 12 0;
#X connect 14 0 12 0;
#X connect 15 0 12 0;
#X connect 16 0 12 0;
#X connect 17 0 12 1;
