#N canvas 20 23 889 855 10;
#X floatatom 18 17 5 0 0 0 - - -;
#X floatatom 68 47 5 0 0 0 - - -;
#X floatatom 20 75 5 0 0 0 - - -;
#X msg 176 17 I;
#X msg 216 17 think;
#X msg 268 17 therefore;
#X msg 374 18 am;
#X msg 412 18 ?;
#X obj 287 72 print;
#X floatatom 596 71 5 0 0 0 - - -;
#X obj 657 70 print;
#X msg 517 18 3.141;
#X msg 566 18 333;
#X msg 613 18 0.007;
#X msg 664 18 0.123457;
#X floatatom 741 19 5 0 0 0 - - -;
#X floatatom 20 131 5 0 0 0 - - -;
#X floatatom 72 131 5 0 0 0 - - -;
#X floatatom 20 269 5 0 0 0 - - -;
#X floatatom 74 269 5 0 0 0 - - -;
#X floatatom 209 270 5 0 0 0 - - -;
#X floatatom 258 270 5 0 0 0 - - -;
#X floatatom 308 270 5 0 0 0 - - -;
#X floatatom 414 131 5 0 0 0 - - -;
#X floatatom 458 131 5 0 0 0 - - -;
#X floatatom 502 131 5 0 0 0 - - -;
#X floatatom 633 131 5 0 0 0 - - -;
#X obj 601 131 bng 15 250 50 0 empty empty empty 17 7 0 10 -262144
-1 -1;
#X msg 681 130 3 is a crowd;
#X msg 775 130 2 is too many;
#X obj 20 177 pack;
#X obj 74 196 print;
#X obj 20 226 unpack;
#X obj 278 180 print;
#X obj 209 226 unpack 0 0 0;
#X msg 209 134 2 4 7;
#X obj 414 175 pack 0 0 0;
#X msg 414 225 set \$1 \$2 \$3;
#X msg 414 269 0 4 5;
#X obj 601 176 pack 3 s s s;
#X obj 601 225 print;
#X floatatom 19 326 5 0 0 0 - - -;
#X floatatom 160 328 5 0 0 0 - - -;
#X floatatom 293 329 5 0 0 0 - - -;
#X obj 19 371 send Tesla;
#X obj 461 330 receive Tesla;
#X obj 602 332 r Edison;
#X obj 735 332 r minions;
#X obj 293 373 s minions;
#X obj 160 373 s Edison;
#X floatatom 461 375 5 0 0 0 - - -;
#X floatatom 602 377 5 0 0 0 - - -;
#X floatatom 735 378 5 0 0 0 - - -;
#X floatatom 19 417 5 0 0 0 - - -;
#X floatatom 132 418 5 0 0 0 - - -;
#X floatatom 132 489 5 0 0 0 - - -;
#X floatatom 464 490 5 0 0 0 - - -;
#X floatatom 609 491 5 0 0 0 - - -;
#X floatatom 609 420 5 0 0 0 - - -;
#X obj 19 454 value Chopin;
#X obj 132 454 v Bach;
#X obj 464 454 value Chopin;
#X obj 609 455 v Bach;
#X obj 464 418 bng 15 250 50 0 empty empty empty 17 7 0 10 -262144
-1 -1;
#X obj 577 420 bng 15 250 50 0 empty empty empty 17 7 0 10 -262144
-1 -1;
#X obj 182 418 bng 15 250 50 0 empty empty empty 17 7 0 10 -262144
-1 -1;
#X text -4 98 ____________________________________________________________
;
#X text 356 98 ____________________________________________________________
;
#X text 716 98 ____________________________________________________________
;
#X text -4 292 ____________________________________________________________
;
#X text 356 292 ____________________________________________________________
;
#X text 716 292 ____________________________________________________________
;
#X text -1 517 ____________________________________________________________
;
#X text 356 517 ____________________________________________________________
;
#X text 716 517 ____________________________________________________________
;
#X floatatom 19 551 5 0 0 0 - - -;
#X floatatom 34 583 5 0 0 0 - - -;
#X floatatom 106 551 5 0 0 0 - - -;
#X floatatom 121 583 5 0 0 0 - - -;
#X floatatom 198 550 5 0 0 0 - - -;
#X floatatom 248 550 5 0 0 0 - - -;
#X floatatom 319 550 5 0 0 0 - - -;
#X floatatom 396 550 5 0 0 0 - - -;
#X floatatom 411 583 5 0 0 0 - - -;
#X floatatom 492 549 5 0 0 0 - - -;
#X floatatom 19 649 5 0 0 0 - - -;
#X floatatom 106 649 5 0 0 0 - - -;
#X floatatom 198 650 5 0 0 0 - - -;
#X floatatom 319 654 5 0 0 0 - - -;
#X floatatom 396 655 5 0 0 0 - - -;
#X floatatom 492 692 5 0 0 0 - - -;
#X floatatom 492 618 5 0 0 0 - - -;
#X obj 19 614 +;
#X obj 106 614 /;
#X obj 198 614 /;
#X obj 396 615 * 2;
#X obj 319 615 * 2;
#X obj 492 584 * 10;
#X obj 492 655 - 10;
#X obj 211 583 bng 15 250 50 0 empty empty empty 17 7 0 10 -262144
-1 -1;
#X obj 571 550 hsl 128 15 0 127 0 0 empty empty empty -2 -8 0 10 -262144
-1 -1 0 1;
#X obj 571 693 hsl 128 15 0 127 0 0 empty empty empty -2 -8 0 10 -262144
-1 -1 0 1;
#X obj 728 550 hsl 128 15 0 127 0 0 empty empty empty -2 -8 0 10 -262144
-1 -1 0 1;
#X obj 728 693 hsl 128 15 0 127 0 0 empty empty empty -2 -8 0 10 -262144
-1 -1 0 1;
#X floatatom 584 585 5 0 0 0 - - -;
#X obj 568 619 - 127;
#X floatatom 584 655 5 0 0 0 - - -;
#X floatatom 725 586 5 0 0 0 - - -;
#X obj 725 619 expr 127 - $i1;
#X floatatom 725 655 5 0 0 0 - - -;
#X text -3 715 ____________________________________________________________
;
#X text 354 715 ____________________________________________________________
;
#X text 714 715 ____________________________________________________________
;
#X floatatom 17 752 5 0 0 0 - - -;
#X floatatom 81 752 5 0 0 0 - - -;
#X floatatom 191 750 5 0 0 0 - - -;
#X floatatom 17 870 5 0 0 0 - - -;
#X floatatom 80 870 5 0 0 0 - - -;
#X obj 17 813 bondo;
#X floatatom 255 750 5 0 0 0 - - -;
#X floatatom 319 750 5 0 0 0 - - -;
#X obj 191 783 bondo 3;
#X obj 191 812 pack 0 0 0;
#X obj 191 841 unpack 0 0 0;
#X floatatom 191 868 5 0 0 0 - - -;
#X floatatom 255 868 5 0 0 0 - - -;
#X floatatom 319 868 5 0 0 0 - - -;
#X connect 0 0 1 0;
#X connect 1 0 2 0;
#X connect 3 0 8 0;
#X connect 4 0 8 0;
#X connect 5 0 8 0;
#X connect 6 0 8 0;
#X connect 7 0 8 0;
#X connect 11 0 9 0;
#X connect 12 0 9 0;
#X connect 13 0 9 0;
#X connect 14 0 10 0;
#X connect 14 0 9 0;
#X connect 15 0 9 0;
#X connect 16 0 30 0;
#X connect 17 0 30 1;
#X connect 23 0 36 0;
#X connect 24 0 36 1;
#X connect 25 0 36 2;
#X connect 26 0 39 0;
#X connect 27 0 39 0;
#X connect 28 0 39 0;
#X connect 29 0 39 0;
#X connect 30 0 32 0;
#X connect 30 0 31 0;
#X connect 32 0 18 0;
#X connect 32 1 19 0;
#X connect 34 0 20 0;
#X connect 34 1 21 0;
#X connect 34 2 22 0;
#X connect 35 0 34 0;
#X connect 35 0 33 0;
#X connect 36 0 37 0;
#X connect 37 0 38 0;
#X connect 39 0 40 0;
#X connect 41 0 44 0;
#X connect 42 0 49 0;
#X connect 43 0 48 0;
#X connect 45 0 50 0;
#X connect 46 0 51 0;
#X connect 47 0 52 0;
#X connect 53 0 59 0;
#X connect 54 0 60 0;
#X connect 58 0 62 0;
#X connect 60 0 55 0;
#X connect 61 0 56 0;
#X connect 62 0 57 0;
#X connect 63 0 61 0;
#X connect 64 0 62 0;
#X connect 65 0 60 0;
#X connect 75 0 92 0;
#X connect 76 0 92 1;
#X connect 77 0 93 0;
#X connect 78 0 93 1;
#X connect 79 0 94 0;
#X connect 80 0 99 0;
#X connect 80 0 94 1;
#X connect 81 0 96 0;
#X connect 82 0 95 0;
#X connect 83 0 95 1;
#X connect 84 0 97 0;
#X connect 91 0 98 0;
#X connect 92 0 85 0;
#X connect 93 0 86 0;
#X connect 94 0 87 0;
#X connect 95 0 89 0;
#X connect 96 0 88 0;
#X connect 97 0 91 0;
#X connect 98 0 90 0;
#X connect 99 0 94 0;
#X connect 100 0 105 0;
#X connect 100 0 104 0;
#X connect 102 0 107 0;
#X connect 105 0 101 0;
#X connect 105 0 106 0;
#X connect 107 0 108 0;
#X connect 108 0 109 0;
#X connect 109 0 103 0;
#X connect 113 0 118 0;
#X connect 114 0 118 1;
#X connect 115 0 121 0;
#X connect 118 0 116 0;
#X connect 118 1 117 0;
#X connect 119 0 121 1;
#X connect 120 0 121 2;
#X connect 121 0 122 0;
#X connect 121 1 122 1;
#X connect 121 2 122 2;
#X connect 122 0 123 0;
#X connect 123 0 124 0;
#X connect 123 1 125 0;
#X connect 123 1 126 0;
