#N canvas 502 335 706 311 10;
#X obj 79 176 send~ Dad;
#X obj 79 68 osc~ 100;
#X obj 109 126 dac~;
#X obj 182 126 send dad;
#X obj 182 70 bng 15 250 50 0 empty empty empty 17 7 0 10 -262130 -1
-1;
#X connect 1 0 0 0;
#X connect 1 0 2 0;
#X connect 1 0 2 1;
#X connect 4 0 3 0;
