#N canvas 1 23 1023 764 10;
#X obj 166 584 bng 15 250 50 0 empty empty empty 17 7 0 10 -262144
-1 -1;
#X obj 166 610 openpanel;
#X obj 206 696 print;
#X obj 166 724 soundfiler;
#X msg 206 638 list ~/Desktop/strawberryChips.wav;
#N canvas 0 22 450 278 (subpatch) 0;
#X array strwbrrychps 1.64605e+07 float 2;
#X coords 0 1 1.64605e+07 -1 200 140 1 0 0;
#X restore 250 407 graph;
#X obj 45 180 bng 15 250 50 0 empty empty empty 17 7 0 10 -262144 -1
-1;
#X obj 66 311 / 44.1;
#X obj 45 421 pack;
#X obj 45 498 vline~;
#X obj 95 498 print;
#X obj 45 574 dac~;
#X floatatom 99 365 5 0 0 0 - - -;
#X msg 3 459 stop;
#X obj 45 226 expr size("strwbrrychps");
#X msg 166 668 read -resize \$1 strwbrrychps;
#X obj 45 536 tabread4~ strwbrrychps;
#X obj 45 142 metro 1000;
#X obj 45 67 bng 15 250 50 0 empty empty empty 17 7 0 10 -262144 -1
-1;
#X obj 71 67 tgl 15 0 empty empty empty 17 7 0 10 -262144 -1 -1 0 1
;
#X msg 97 67 0;
#X msg 2 67 stop;
#X floatatom 45 264 5 0 0 0 - - -;
#X floatatom 66 339 5 0 0 0 - - -;
#X floatatom 210 264 5 0 0 0 - - -;
#X obj 213 301 hsl 128 15 0 127 0 0 empty empty empty -2 -8 0 10 -262144
-1 -1 3300 1;
#X msg 231 179 2;
#X obj 361 301 hsl 128 15 0 127 0 0 empty empty empty -2 -8 0 10 -262144
-1 -1 700 1;
#X obj 210 226 counter 0 0 127;
#X msg 45 459 100000 \, \$1 \$2;
#X floatatom 102 117 5 0 0 0 - - -;
#X obj 66 393 * 0.01;
#X obj 172 101 hsl 128 15 0 127 0 0 empty empty empty -2 -8 0 10 -262144
-1 -1 400 1;
#X obj 169 82 random 20;
#X obj 678 584 bng 15 250 50 0 empty empty empty 17 7 0 10 -262144
-1 -1;
#X obj 678 610 openpanel;
#X obj 718 696 print;
#X obj 678 724 soundfiler;
#N canvas 0 22 450 278 (subpatch) 0;
#X array prttn 9.24665e+06 float 2;
#X coords 0 1 9.24665e+06 -1 200 140 1;
#X restore 761 407 graph;
#X msg 678 668 read -resize \$1 prttn;
#X msg 718 638 list ~/Desktop/partition.wav;
#X obj 557 180 bng 15 250 50 0 empty empty empty 17 7 0 10 -262144
-1 -1;
#X obj 578 311 / 44.1;
#X obj 557 421 pack;
#X obj 557 498 vline~;
#X obj 607 498 print;
#X obj 557 574 dac~;
#X floatatom 611 365 5 0 0 0 - - -;
#X msg 515 459 stop;
#X obj 557 142 metro 1000;
#X obj 557 67 bng 15 250 50 0 empty empty empty 17 7 0 10 -262144 -1
-1;
#X obj 583 67 tgl 15 0 empty empty empty 17 7 0 10 -262144 -1 -1 0
1;
#X msg 609 67 0;
#X msg 514 67 stop;
#X floatatom 557 264 5 0 0 0 - - -;
#X floatatom 578 339 5 0 0 0 - - -;
#X floatatom 722 264 5 0 0 0 - - -;
#X obj 725 301 hsl 128 15 0 127 0 0 empty empty empty -2 -8 0 10 -262144
-1 -1 5000 1;
#X msg 743 179 2;
#X obj 873 301 hsl 128 15 0 127 0 0 empty empty empty -2 -8 0 10 -262144
-1 -1 200 1;
#X obj 722 226 counter 0 0 127;
#X floatatom 614 117 5 0 0 0 - - -;
#X obj 684 101 hsl 128 15 0 127 0 0 empty empty empty -2 -8 0 10 -262144
-1 -1 2600 1;
#X obj 557 536 tabread4~ prttn;
#X obj 557 226 expr size("prttn");
#X obj 870 223 random 10;
#X obj 358 223 random 24;
#X obj 578 393 * 0.02;
#X obj 557 19 metro 1000;
#X obj 557 -6 bng 15 250 50 0 empty empty empty 17 7 0 10 -262144 -1
-1;
#X msg 514 -6 stop;
#X msg 557 459 10000 \, \$1 \$2;
#X obj 681 82 drunk 0 24;
#X obj 45 19 metro 1000;
#X obj 45 -6 bng 15 250 50 0 empty empty empty 17 7 0 10 -262144 -1
-1;
#X msg 2 -6 stop;
#X connect 0 0 1 0;
#X connect 1 0 15 0;
#X connect 4 0 15 0;
#X connect 6 0 14 0;
#X connect 6 0 28 0;
#X connect 6 0 66 0;
#X connect 7 0 23 0;
#X connect 8 0 29 0;
#X connect 9 0 16 0;
#X connect 12 0 31 1;
#X connect 13 0 9 0;
#X connect 14 0 22 0;
#X connect 15 0 2 0;
#X connect 15 0 3 0;
#X connect 16 0 11 0;
#X connect 16 0 11 1;
#X connect 17 0 6 0;
#X connect 18 0 17 0;
#X connect 18 0 33 0;
#X connect 19 0 17 0;
#X connect 19 0 33 0;
#X connect 20 0 17 0;
#X connect 21 0 17 0;
#X connect 22 0 8 0;
#X connect 22 0 7 0;
#X connect 23 0 31 0;
#X connect 24 0 25 0;
#X connect 26 0 28 1;
#X connect 27 0 12 0;
#X connect 28 0 24 0;
#X connect 29 0 10 0;
#X connect 29 0 9 0;
#X connect 30 0 17 1;
#X connect 31 0 8 1;
#X connect 32 0 30 0;
#X connect 33 0 32 0;
#X connect 34 0 35 0;
#X connect 35 0 39 0;
#X connect 39 0 36 0;
#X connect 39 0 37 0;
#X connect 40 0 39 0;
#X connect 41 0 60 0;
#X connect 41 0 64 0;
#X connect 41 0 65 0;
#X connect 42 0 55 0;
#X connect 43 0 71 0;
#X connect 44 0 63 0;
#X connect 47 0 67 1;
#X connect 48 0 44 0;
#X connect 49 0 41 0;
#X connect 50 0 49 0;
#X connect 50 0 72 0;
#X connect 51 0 49 0;
#X connect 52 0 49 0;
#X connect 53 0 49 0;
#X connect 54 0 43 0;
#X connect 54 0 42 0;
#X connect 55 0 67 0;
#X connect 56 0 57 0;
#X connect 58 0 60 1;
#X connect 59 0 47 0;
#X connect 60 0 56 0;
#X connect 61 0 49 1;
#X connect 62 0 61 0;
#X connect 63 0 46 0;
#X connect 63 0 46 1;
#X connect 64 0 54 0;
#X connect 65 0 59 0;
#X connect 66 0 27 0;
#X connect 67 0 43 1;
#X connect 68 0 50 0;
#X connect 69 0 68 0;
#X connect 70 0 68 0;
#X connect 71 0 45 0;
#X connect 71 0 44 0;
#X connect 72 0 62 0;
#X connect 73 0 18 0;
#X connect 74 0 73 0;
#X connect 75 0 73 0;
