#N canvas 4 449 462 429 10;
#X obj 78 155 pink~;
#X obj 78 298 dac~;
#X obj 13 155 noise~;
#X floatatom 93 233 5 0 0 0 - - -;
#X obj 78 260 *~;
#X obj 119 91 vsl 15 128 0 1 0 0 empty empty empty 0 -9 0 10 -232576
-1 -1 0 1;
#X obj 119 63 tgl 15 0 empty empty empty 17 7 0 10 -204800 -1 -1 0
1;
#X floatatom 170 8 5 0 0 0 - - -;
#X obj 119 9 tgl 15 0 empty empty empty 17 7 0 10 -203904 -1 -1 0 1
;
#X floatatom 213 -7 5 0 0 0 - - -;
#X obj 213 20 train~ 500;
#X obj 119 35 metro 500;
#X obj 270 48 bng 15 250 50 0 empty empty empty 17 7 0 10 -204786 -1
-1;
#X text 210 -28 (for faster audio control);
#X obj 178 105 pink~;
#X obj 178 298 dac~;
#X obj 178 260 *~;
#X obj 193 232 line~;
#X msg 220 204 0 500;
#X msg 193 154 0 \, 1 1000;
#X obj 220 181 bng 15 250 50 0 empty empty empty 17 7 0 10 -191407
-1 -1;
#X obj 193 131 bng 15 250 50 0 empty empty empty 17 7 0 10 -228856
-1 -1;
#X connect 0 0 4 0;
#X connect 3 0 4 1;
#X connect 5 0 3 0;
#X connect 6 0 5 0;
#X connect 7 0 11 1;
#X connect 8 0 11 0;
#X connect 9 0 10 0;
#X connect 10 1 12 0;
#X connect 11 0 6 0;
#X connect 14 0 16 0;
#X connect 16 0 15 0;
#X connect 16 0 15 1;
#X connect 17 0 16 1;
#X connect 18 0 17 0;
#X connect 19 0 17 0;
#X connect 20 0 18 0;
#X connect 21 0 19 0;
