#N canvas 1 23 683 595 10;
#X obj 75 66 bng 15 250 50 0 empty empty empty 17 7 0 10 -262144 -1
-1;
#X obj 75 112 openpanel;
#X obj 115 248 print;
#N canvas 0 22 450 278 (subpatch) 0;
#X array array1 1.64605e+07 float 2;
#X coords 0 1 1.64605e+07 -1 200 140 1 0 0;
#X restore 75 376 graph;
#X obj 75 296 soundfiler;
#X msg 75 190 read -resize \$1 array1;
#X obj 405 66 bng 15 250 50 0 empty empty empty 17 7 0 10 -262144 -1
-1;
#X obj 405 112 expr size("array1");
#X floatatom 405 160 5 0 0 0 - - -;
#X obj 426 197 / 44.1;
#X floatatom 426 222 5 0 0 0 - - -;
#X obj 405 307 pack;
#X obj 405 384 vline~;
#X obj 455 384 print;
#X obj 405 422 tabread4~ array1;
#X obj 405 460 dac~;
#X text 490 344 start_time \, endtime time_in_ms;
#X msg 115 150 list ~/Desktop/strawberryChips.wav;
#X msg 405 345 0 \, \$1 \$2;
#X obj 426 279 * 3;
#X floatatom 441 251 5 0 0 0 - - -;
#X msg 357 345 stop;
#X text 366 344 comment;
#X connect 0 0 1 0;
#X connect 1 0 5 0;
#X connect 5 0 2 0;
#X connect 5 0 4 0;
#X connect 6 0 7 0;
#X connect 7 0 8 0;
#X connect 8 0 11 0;
#X connect 8 0 9 0;
#X connect 9 0 10 0;
#X connect 10 0 19 0;
#X connect 11 0 18 0;
#X connect 12 0 14 0;
#X connect 14 0 15 0;
#X connect 14 0 15 1;
#X connect 17 0 5 0;
#X connect 18 0 12 0;
#X connect 18 0 13 0;
#X connect 19 0 11 1;
#X connect 20 0 19 1;
#X connect 21 0 12 0;
